<svg width="120" height="32" viewBox="0 0 120 32" fill="none" xmlns="http://www.w3.org/2000/svg">
  <rect width="120" height="32" rx="6" fill="#F6C200"/>
  <rect x="4" y="4" width="24" height="24" rx="4" fill="#111111"/>
  <rect x="10" y="8" width="12" height="16" rx="2" fill="#F6C200"/>
  <path d="M38 22V10h4v12h-4zm6 0V10h4.5c2.8 0 4.5 1.6 4.5 4s-1.7 4-4.5 4H48v4h-4zM48 14h1.2c.9 0 1.6.5 1.6 1.4s-.7 1.4-1.6 1.4H48V14zm8 8V10h4v12h-4zm6 0V10h4v8h5v4H62zM82 22c-3.6 0-6-2.4-6-6s2.4-6 6-6 6 2.4 6 6-2.4 6-6 6zm0-4c1.4 0 2.4-1 2.4-2s-1-2-2.4-2-2.4 1-2.4 2 1 2 2.4 2zm10 4V10h4v12h-4zm6-8v-4h10v4h-3v8h-4v-8h-3z" fill="#111111"/>
</svg>
